<svg width="157" height="157" viewBox="0 0 157 157" fill="none" xmlns="http://www.w3.org/2000/svg">
<path d="M0 12C0 5.37258 5.37258 0 12 0H145C151.627 0 157 5.37258 157 12V145C157 151.627 151.627 157 145 157H12C5.37258 157 0 151.627 0 145V12Z" fill="#FF5E00"/>
<path d="M73.2841 144V91.6364H89.1364V101.25H89.7159C90.8068 98.0682 92.6477 95.5568 95.2386 93.7159C97.8295 91.875 100.92 90.9545 104.511 90.9545C108.148 90.9545 111.261 91.8864 113.852 93.75C116.443 95.6136 118.091 98.1136 118.795 101.25H119.341C120.318 98.1364 122.227 95.6477 125.068 93.7841C127.909 91.8977 131.261 90.9545 135.125 90.9545C140.08 90.9545 144.102 92.5455 147.193 95.7273C150.284 98.8864 151.83 103.227 151.83 108.75V144H135.159V112.568C135.159 109.955 134.489 107.966 133.148 106.602C131.807 105.216 130.068 104.523 127.932 104.523C125.636 104.523 123.83 105.273 122.511 106.773C121.216 108.25 120.568 110.239 120.568 112.739V144H104.545V112.398C104.545 109.966 103.886 108.045 102.568 106.636C101.25 105.227 99.5114 104.523 97.3523 104.523C95.8977 104.523 94.6136 104.875 93.5 105.58C92.3864 106.261 91.5114 107.239 90.875 108.511C90.2614 109.784 89.9545 111.284 89.9545 113.011V144H73.2841Z" fill="white"/>
</svg>
